<svg xmlns="http://www.w3.org/2000/svg" width="512" height="512" viewBox="0 0 512 512">
  <rect width="512" height="512" rx="96" fill="#0f172a"/>
  <g transform="translate(256,222) scale(2.4)">
    <defs>
      <clipPath id="ic1"><path d="M 29 17 L 145 17 L 145 151 L 29 151 Z"/></clipPath>
      <clipPath id="ic2"><path d="M 58.37 0.61 L 173.86 67.29 L 116.11 167.31 L 0.62 100.64 Z"/></clipPath>
      <clipPath id="ic3"><path d="M 73 47.41 L 123.6 47.41 L 123.6 98 L 73 98 Z"/></clipPath>
      <clipPath id="ic4"><rect x="0" width="174" y="0" height="168"/></clipPath>
    </defs>
    <g transform="translate(-87,-84)">
      <g clip-path="url(#ic4)">
        <g clip-path="url(#ic1)">
          <g clip-path="url(#ic2)">
            <path fill="#fff" d="M 144.93 50.64 L 144.93 117.29 L 87.21 150.62 L 29.48 117.29 L 29.48 50.64 L 87.21 17.31 Z"/>
          </g>
        </g>
      </g>
      <path fill="#0f172a" d="M 98.04 73.12 C 96.21 71.29 93.95 69.88 91.49 69.07 C 85.5 75.05 85.02 75.28 84.26 77.1 C 90.33 76.7 95.19 82.25 93.84 88.32 C 93.01 92.08 84.54 99.5 76.91 107.3 C 73.34 110.93 67.46 110.9 63.86 107.3 C 60.27 103.7 60.27 97.86 63.86 94.26 L 71.99 86.13 C 70.99 82.39 71.21 78.45 72.48 74.93 L 57.2 90.21 C 50.66 96.75 50.66 107.41 57.2 113.96 C 63.76 120.52 74.38 120.52 80.95 113.96 L 98.04 96.87 C 104.55 90.36 104.65 79.73 98.04 73.12 Z"/>
      <g clip-path="url(#ic3)">
        <path fill="#0f172a" d="M 118.84 76.08 C 122 72.91 123.75 68.69 123.75 64.21 C 123.75 54.94 116.24 47.41 106.95 47.41 C 102.47 47.41 98.25 49.16 95.09 52.32 C 90.81 56.6 82.27 65.14 78 69.42 C 71.51 75.9 71.37 86.54 78 93.17 C 79.83 95 82.09 96.4 84.55 97.21 C 90.5 91.27 91.02 91.02 91.78 89.19 C 89.15 89.36 86.57 88.41 84.67 86.51 C 81.04 82.88 81.11 77.03 84.67 73.46 C 87.86 70.28 95.88 62.25 99.13 59 C 102.73 55.4 108.58 55.39 112.18 59 C 115.78 62.6 115.78 68.45 112.18 72.05 L 104.05 80.18 C 105.07 84.02 104.82 87.89 103.56 91.37 Z"/>
      </g>
    </g>
  </g>
  <text x="256" y="420" text-anchor="middle" fill="#fff" font-family="'DM Sans',system-ui,sans-serif" font-size="72" font-weight="900" letter-spacing="-2">GEMA</text>
</svg>
