<svg xmlns="http://www.w3.org/2000/svg" xmlns:xlink="http://www.w3.org/1999/xlink" width="192" height="192" viewBox="0 0 567 567" preserveAspectRatio="xMidYMid meet" version="1.0"><defs><clipPath id="a1"><path d="M 0.5 0 L 566.5 0 L 566.5 566 L 0.5 566 Z" clip-rule="nonzero"/></clipPath><clipPath id="a2"><path d="M 0.5 0 L 566.5 0 L 566.5 566 L 0.5 566 Z" clip-rule="nonzero"/></clipPath><clipPath id="a3"><path d="M 39 0 L 528 0 L 528 566 L 39 566 Z" clip-rule="nonzero"/></clipPath><clipPath id="a4"><path d="M 161.339844 -70.058594 L 650.511719 212.363281 L 405.90625 636.03125 L -83.265625 353.609375 Z" clip-rule="nonzero"/></clipPath><clipPath id="a5"><path d="M 161.339844 -70.058594 L 650.511719 212.363281 L 405.90625 636.03125 L -83.265625 353.609375 Z" clip-rule="nonzero"/></clipPath><clipPath id="a6"><path d="M 223 128.171875 L 437.644531 128.171875 L 437.644531 340 L 223 340 Z" clip-rule="nonzero"/></clipPath><clipPath id="a7"><rect x="0" width="567" y="0" height="566"/></clipPath><clipPath id="a8"><rect x="0" width="567" y="0" height="566"/></clipPath></defs><g clip-path="url(#a1)"><g clip-path="url(#a8)"><g clip-path="url(#a2)"><g clip-path="url(#a7)"><g clip-path="url(#a3)"><g clip-path="url(#a4)"><g clip-path="url(#a5)"><path fill="#000000" d="M 527.996094 141.839844 L 527.996094 424.160156 L 283.496094 565.324219 L 39 424.164062 L 39 141.839844 L 283.5 0.675781 L 527.996094 141.839844" fill-opacity="1" fill-rule="nonzero"/></g></g></g><path fill="#ffffff" d="M 329.402344 237.054688 C 321.636719 229.289062 312.035156 223.351562 301.632812 219.910156 C 276.277344 245.261719 274.226562 246.214844 271.003906 253.90625 C 296.722656 252.222656 317.3125 275.742188 311.597656 301.460938 C 308.078125 317.363281 272.175781 348.796875 239.863281 381.84375 C 224.765625 397.230469 199.855469 397.085938 184.613281 381.84375 C 169.371094 366.601562 169.371094 341.835938 184.613281 326.59375 L 219.050781 292.15625 C 214.800781 276.328125 215.753906 259.621094 221.105469 244.75 L 156.402344 309.449219 C 128.707031 337.144531 128.707031 382.28125 156.402344 410.054688 C 184.175781 437.824219 229.164062 437.824219 257.007812 410.054688 L 329.402344 337.660156 C 356.953125 310.109375 357.394531 265.046875 329.402344 237.054688 Z M 329.402344 237.054688" fill-opacity="1" fill-rule="nonzero"/><g clip-path="url(#a6)"><path fill="#ffffff" d="M 417.476562 249.585938 C 430.886719 236.175781 438.285156 218.296875 438.285156 199.320312 C 438.285156 160.042969 406.484375 128.171875 367.136719 128.171875 C 348.160156 128.171875 330.28125 135.570312 316.871094 148.980469 C 298.773438 167.078125 262.578125 203.277344 244.476562 221.375 C 217 248.851562 216.414062 293.914062 244.476562 321.980469 C 252.246094 329.746094 261.84375 335.679688 272.25 339.125 C 297.453125 313.917969 299.652344 312.894531 302.878906 305.125 C 291.738281 305.859375 280.820312 301.828125 272.761719 293.769531 C 257.375 278.382812 257.667969 253.613281 272.761719 238.519531 C 286.242188 225.039062 320.242188 191.039062 334.019531 177.261719 C 349.257812 162.023438 374.027344 161.949219 389.265625 177.261719 C 404.507812 192.503906 404.507812 217.269531 389.265625 232.511719 L 354.828125 266.949219 C 359.152344 283.21875 358.125 299.628906 352.777344 314.359375 Z M 417.476562 249.585938" fill-opacity="1" fill-rule="nonzero"/></g></g></g></g></g></svg>
