<svg xmlns="http://www.w3.org/2000/svg" width="512" height="512" viewBox="0 0 192 192">
  <g transform="translate(96,96)">
    <polygon points="0,-78 67.5,-39 67.5,39 0,78 -67.5,39 -67.5,-39" fill="#111827"/>
    <g transform="rotate(-45)" fill="#fff">
      <path d="M-14,-16 h10 a16,16 0 0 1 0,32 h-10 a16,16 0 0 1 0,-32 z M-4,-8 h-10 a8,8 0 0 0 0,16 h10 a8,8 0 0 0 0,-16 z"/>
      <path d="M14,16 h-10 a16,16 0 0 1 0,-32 h10 a16,16 0 0 1 0,32 z M4,8 h10 a8,8 0 0 0 0,-16 h-10 a8,8 0 0 0 0,16 z"/>
    </g>
  </g>
</svg>
