<svg xmlns="http://www.w3.org/2000/svg" xmlns:xlink="http://www.w3.org/1999/xlink" width="192" height="192" viewBox="0 0 567 567" preserveAspectRatio="xMidYMid meet" version="1.0"><defs><clipPath id="a1"><path d="M 29 17 L 145 17 L 145 151 L 29 151 Z" clip-rule="nonzero"/></clipPath><clipPath id="a2"><path d="M 58.367188 0.613281 L 173.855469 67.289062 L 116.105469 167.3125 L 0.621094 100.636719 Z" clip-rule="nonzero"/></clipPath><clipPath id="a3"><path d="M 58.367188 0.613281 L 173.855469 67.289062 L 116.105469 167.3125 L 0.621094 100.636719 Z" clip-rule="nonzero"/></clipPath><clipPath id="a4"><path d="M 73 47.414062 L 123.597656 47.414062 L 123.597656 98 L 73 98 Z" clip-rule="nonzero"/></clipPath><clipPath id="a5"><rect x="0" width="174" y="0" height="168"/></clipPath></defs><g transform="matrix(1, 0, 0, 1, 83, 199)"><g clip-path="url(#a5)"><g clip-path="url(#a1)"><g clip-path="url(#a2)"><g clip-path="url(#a3)"><path fill="#000000" d="M 144.929688 50.640625 L 144.929688 117.292969 L 87.207031 150.617188 L 29.484375 117.292969 L 29.484375 50.640625 L 87.207031 17.3125 L 144.929688 50.640625" fill-opacity="1" fill-rule="nonzero"/></g></g></g><path fill="#ffffff" d="M 98.042969 73.117188 C 96.210938 71.285156 93.945312 69.882812 91.488281 69.070312 C 85.503906 75.054688 85.019531 75.28125 84.257812 77.097656 C 90.328125 76.699219 95.191406 82.253906 93.839844 88.324219 C 93.011719 92.078125 84.535156 99.5 76.90625 107.300781 C 73.34375 110.933594 67.460938 110.898438 63.863281 107.300781 C 60.265625 103.703125 60.265625 97.855469 63.863281 94.257812 L 71.992188 86.128906 C 70.988281 82.390625 71.214844 78.445312 72.476562 74.933594 L 57.203125 90.210938 C 50.664062 96.75 50.664062 107.40625 57.203125 113.960938 C 63.757812 120.515625 74.378906 120.515625 80.953125 113.960938 L 98.042969 96.871094 C 104.550781 90.367188 104.652344 79.726562 98.042969 73.117188 Z M 98.042969 73.117188" fill-opacity="1" fill-rule="nonzero"/><g clip-path="url(#a4)"><path fill="#ffffff" d="M 118.835938 76.078125 C 122.003906 72.910156 123.75 68.691406 123.75 64.210938 C 123.75 54.9375 116.242188 47.414062 106.953125 47.414062 C 102.472656 47.414062 98.253906 49.160156 95.085938 52.324219 C 90.8125 56.597656 82.269531 65.144531 77.996094 69.417969 C 71.507812 75.902344 71.371094 86.542969 77.996094 93.167969 C 79.828125 95 82.09375 96.402344 84.550781 97.214844 C 90.503906 91.265625 91.019531 91.023438 91.78125 89.1875 C 89.152344 89.363281 86.574219 88.410156 84.671875 86.507812 C 81.039062 82.875 81.109375 77.027344 84.671875 73.464844 C 87.855469 70.28125 95.882812 62.253906 99.132812 59.003906 C 102.734375 55.40625 108.578125 55.386719 112.179688 59.003906 C 115.777344 62.601562 115.777344 68.449219 112.179688 72.046875 L 104.046875 80.175781 C 105.066406 84.015625 104.824219 87.890625 103.5625 91.367188 Z M 118.835938 76.078125" fill-opacity="1" fill-rule="nonzero"/></g></g></g></svg>
